<svg xmlns="http://www.w3.org/2000/svg" xmlns:xlink="http://www.w3.org/1999/xlink" width="500" zoomAndPan="magnify" viewBox="0 0 375 374.999991" height="500" preserveAspectRatio="xMidYMid meet" version="1.0"><defs><g/><clipPath id="0ce7c47c7b"><path d="M 15.070312 128.628906 L 197 128.628906 L 197 375 L 15.070312 375 Z M 15.070312 128.628906 " clip-rule="nonzero"/></clipPath></defs><g clip-path="url(#0ce7c47c7b)"><path fill="#323232" d="M 196.925781 185.503906 C 193.546875 179.992188 179.875 171.234375 169.121094 167.628906 C 158.375 164.023438 147.40625 162.980469 136.105469 164.589844 C 147.46875 157.269531 159.804688 152.589844 174.011719 149.667969 C 162.785156 145.695312 152.304688 144.316406 141.488281 146.234375 C 130.519531 148.183594 121.195312 153.320312 112.886719 161.976562 C 113.847656 148.300781 108.484375 138.003906 99.417969 128.632812 C 99.367188 128.746094 99.324219 128.863281 99.277344 128.976562 C 99.207031 128.875 99.140625 128.769531 99.070312 128.667969 C 92.089844 139.683594 88.921875 150.847656 92.632812 164.050781 C 82.742188 157.257812 72.570312 154.113281 61.4375 154.425781 C 50.457031 154.734375 40.46875 158.210938 30.28125 164.375 C 44.785156 164.355469 57.8125 166.441406 70.425781 171.3125 C 59.03125 172.023438 48.5 175.265625 38.710938 180.96875 C 28.90625 186.679688 17.289062 198.023438 15.097656 204.109375 C 29.109375 196.695312 46.042969 192.730469 57.824219 191.089844 C 60.4375 190.722656 62.792969 190.472656 64.808594 190.324219 C 58.351562 194.019531 52.699219 198.167969 47.972656 202.875 C 37.949219 212.835938 32.085938 225.292969 31.589844 241.195312 C 43.167969 229.429688 57.078125 221.480469 71.582031 214.140625 C 64.269531 229.175781 62.664062 244.734375 72.335938 261.445312 C 74.867188 245.140625 81.191406 230.421875 90.308594 216.226562 C 90.242188 220.523438 90.964844 228.308594 91.378906 228.523438 C 95.242188 223.511719 99.101562 218.507812 103.054688 213.382812 C 103.597656 212.675781 104.15625 211.984375 104.726562 211.300781 C 108.589844 266.09375 104.894531 320.988281 93.726562 374.539062 L 93.273438 376.707031 L 118.761719 376.707031 L 118.886719 375.039062 C 123.03125 319.386719 119.558594 263.59375 108.5625 209.144531 C 109.972656 210.171875 111.34375 211.257812 112.671875 212.398438 C 117.578125 216.617188 122.375 220.738281 127.171875 224.863281 C 127.535156 224.566406 126.664062 216.800781 125.726562 212.605469 C 125.730469 212.613281 125.738281 212.613281 125.738281 212.617188 C 137.539062 224.667969 146.703125 237.796875 152.484375 253.246094 C 158.574219 234.921875 153.851562 220.015625 143.644531 206.773438 C 159.335938 211.019531 174.566406 215.988281 188.285156 225.160156 C 184.582031 209.691406 176.324219 198.683594 164.488281 190.957031 C 158.90625 187.304688 152.527344 184.386719 145.457031 182.074219 C 147.460938 181.808594 149.816406 181.578125 152.449219 181.410156 C 164.316406 180.632812 181.707031 181.085938 196.925781 185.503906 " fill-opacity="1" fill-rule="nonzero"/></g><g fill="#323232" fill-opacity="1"><g transform="translate(45.190171, 373.50226)"><g><path d="M 46.695312 -59.199219 L 4.949219 -59.199219 C 2.878906 -59.199219 2.339844 -58.210938 2.339844 -56.589844 L 2.339844 -49.125 C 2.339844 -47.503906 2.878906 -46.515625 4.949219 -46.515625 L 18.804688 -46.515625 L 18.804688 -2.609375 C 18.804688 -0.539062 19.792969 0 21.414062 0 L 30.320312 0 C 31.9375 0 32.929688 -0.539062 32.929688 -2.609375 L 32.929688 -46.515625 L 46.695312 -46.515625 C 48.765625 -46.515625 49.304688 -47.503906 49.304688 -49.125 L 49.304688 -56.589844 C 49.304688 -58.210938 48.765625 -59.199219 46.695312 -59.199219 Z M 46.695312 -59.199219 "/></g></g></g><g fill="#323232" fill-opacity="1"><g transform="translate(90.002668, 373.50226)"><g/></g></g><g fill="#323232" fill-opacity="1"><g transform="translate(107.54543, 373.50226)"><g/></g></g><g fill="#323232" fill-opacity="1"><g transform="translate(125.088607, 373.50226)"><g><path d="M 29.421875 -59.199219 L 9.265625 -59.199219 C 7.199219 -59.199219 6.65625 -58.210938 6.65625 -56.589844 L 6.65625 -2.609375 C 6.65625 -0.988281 7.199219 0 9.265625 0 L 29.421875 0 C 40.125 0 53.621094 -6.117188 53.621094 -20.242188 L 53.621094 -38.957031 C 53.621094 -52.992188 40.125 -59.199219 29.421875 -59.199219 Z M 39.496094 -37.699219 L 39.496094 -21.503906 C 39.496094 -15.746094 35.359375 -12.503906 29.421875 -12.503906 L 20.78125 -12.503906 L 20.78125 -46.695312 L 29.421875 -46.695312 C 35.359375 -46.695312 39.496094 -43.367188 39.496094 -37.699219 Z M 39.496094 -37.699219 "/></g></g></g><g fill="#323232" fill-opacity="1"><g transform="translate(176.728054, 373.50226)"><g><path d="M 29.421875 -59.199219 L 9.265625 -59.199219 C 7.199219 -59.199219 6.65625 -58.210938 6.65625 -56.589844 L 6.65625 -2.609375 C 6.65625 -0.988281 7.199219 0 9.265625 0 L 29.421875 0 C 40.125 0 53.621094 -6.117188 53.621094 -20.242188 L 53.621094 -38.957031 C 53.621094 -52.992188 40.125 -59.199219 29.421875 -59.199219 Z M 39.496094 -37.699219 L 39.496094 -21.503906 C 39.496094 -15.746094 35.359375 -12.503906 29.421875 -12.503906 L 20.78125 -12.503906 L 20.78125 -46.695312 L 29.421875 -46.695312 C 35.359375 -46.695312 39.496094 -43.367188 39.496094 -37.699219 Z M 39.496094 -37.699219 "/></g></g></g><g fill="#323232" fill-opacity="1"><g transform="translate(228.3675, 373.50226)"><g><path d="M 49.574219 -12.597656 L 20.871094 -12.597656 L 20.871094 -24.472656 L 44.984375 -24.472656 C 47.054688 -24.472656 47.59375 -25.460938 47.59375 -27.082031 L 47.59375 -34.097656 C 47.59375 -35.71875 47.054688 -36.707031 44.984375 -36.707031 L 20.871094 -36.707031 L 20.871094 -46.515625 L 48.042969 -46.515625 C 50.113281 -46.515625 50.652344 -47.503906 50.652344 -49.125 L 50.652344 -56.589844 C 50.652344 -58.210938 50.113281 -59.199219 48.042969 -59.199219 L 9.265625 -59.199219 C 7.199219 -59.199219 6.65625 -58.210938 6.65625 -56.589844 L 6.65625 -2.609375 C 6.65625 -0.988281 7.199219 0 9.265625 0 L 49.574219 0 C 51.644531 0 52.183594 -0.988281 52.183594 -2.609375 L 52.183594 -9.988281 C 52.183594 -11.605469 51.644531 -12.597656 49.574219 -12.597656 Z M 49.574219 -12.597656 "/></g></g></g><g fill="#323232" fill-opacity="1"><g transform="translate(277.937753, 373.50226)"><g><path d="M 55.152344 -2.878906 L 42.464844 -21.324219 C 48.042969 -23.210938 54.972656 -29.78125 54.972656 -39.226562 C 54.972656 -44.984375 53.082031 -50.113281 49.753906 -53.351562 C 45.976562 -57.132812 41.65625 -59.109375 31.847656 -59.109375 L 9.175781 -59.109375 C 7.109375 -59.109375 6.65625 -58.121094 6.65625 -56.5 L 6.65625 -2.609375 C 6.65625 -0.539062 7.558594 0 9.175781 0 L 18.082031 0 C 19.703125 0 20.691406 -0.539062 20.691406 -2.609375 L 20.691406 -46.515625 L 32.660156 -46.515625 C 37.335938 -46.515625 40.9375 -43.546875 40.9375 -38.867188 C 40.9375 -34.636719 36.796875 -31.578125 32.390625 -31.578125 L 30.589844 -31.578125 C 28.519531 -31.578125 27.980469 -30.589844 27.980469 -28.96875 L 27.980469 -21.773438 C 27.980469 -19.253906 28.160156 -18.265625 28.96875 -17.183594 L 38.6875 -2.699219 C 39.945312 -0.808594 41.027344 0 43.1875 0 L 53.800781 0 C 55.511719 0 55.960938 -1.621094 55.152344 -2.878906 Z M 55.152344 -2.878906 "/></g></g></g></svg>