<svg xmlns="http://www.w3.org/2000/svg" xmlns:xlink="http://www.w3.org/1999/xlink" width="500" zoomAndPan="magnify" viewBox="0 0 375 374.999991" height="500" preserveAspectRatio="xMidYMid meet" version="1.0"><defs><g/><clipPath id="478cb65063"><path d="M 12.035156 126.902344 L 194 126.902344 L 194 375 L 12.035156 375 Z M 12.035156 126.902344 " clip-rule="nonzero"/></clipPath></defs><g clip-path="url(#478cb65063)"><path fill="#323232" d="M 193.894531 183.78125 C 190.515625 178.265625 176.84375 169.507812 166.085938 165.902344 C 155.34375 162.296875 144.375 161.257812 133.074219 162.867188 C 144.4375 155.542969 156.773438 150.863281 170.980469 147.945312 C 159.753906 143.96875 149.273438 142.589844 138.457031 144.511719 C 127.488281 146.457031 118.160156 151.597656 109.855469 160.25 C 110.816406 146.574219 105.453125 136.28125 96.386719 126.90625 C 96.335938 127.019531 96.292969 127.136719 96.246094 127.253906 C 96.175781 127.148438 96.109375 127.042969 96.035156 126.941406 C 89.054688 137.957031 85.890625 149.125 89.601562 162.324219 C 79.710938 155.53125 69.539062 152.386719 58.40625 152.699219 C 47.421875 153.011719 37.4375 156.484375 27.246094 162.652344 C 41.753906 162.628906 54.78125 164.71875 67.394531 169.585938 C 55.996094 170.296875 45.46875 173.539062 35.675781 179.246094 C 25.875 184.953125 14.257812 196.296875 12.066406 202.382812 C 26.074219 194.972656 43.011719 191.003906 54.792969 189.367188 C 57.402344 188.996094 59.757812 188.75 61.773438 188.597656 C 55.320312 192.292969 49.667969 196.445312 44.941406 201.148438 C 34.914062 211.113281 29.054688 223.570312 28.558594 239.46875 C 40.132812 227.703125 54.042969 219.753906 68.546875 212.414062 C 61.238281 227.449219 59.632812 243.011719 69.304688 259.71875 C 71.835938 243.414062 78.160156 228.695312 87.277344 214.5 C 87.210938 218.800781 87.929688 226.585938 88.347656 226.796875 C 92.207031 221.785156 96.070312 216.78125 100.019531 211.660156 C 100.566406 210.953125 101.125 210.257812 101.695312 209.574219 C 105.558594 264.367188 101.859375 319.261719 90.691406 372.8125 L 90.242188 374.980469 L 115.730469 374.980469 L 115.855469 373.3125 C 120 317.664062 116.523438 261.867188 105.527344 207.417969 C 106.941406 208.449219 108.3125 209.535156 109.640625 210.675781 C 114.546875 214.890625 119.34375 219.011719 124.140625 223.136719 C 124.503906 222.84375 123.632812 215.078125 122.695312 210.882812 C 122.699219 210.890625 122.703125 210.890625 122.707031 210.890625 C 134.507812 222.941406 143.671875 236.070312 149.453125 251.519531 C 155.542969 233.195312 150.820312 218.289062 140.613281 205.046875 C 156.304688 209.292969 171.535156 214.261719 185.253906 223.4375 C 181.546875 207.964844 173.289062 196.957031 161.457031 189.234375 C 155.871094 185.578125 149.496094 182.660156 142.425781 180.347656 C 144.429688 180.085938 146.785156 179.851562 149.417969 179.683594 C 161.285156 178.90625 178.675781 179.359375 193.894531 183.78125 " fill-opacity="1" fill-rule="nonzero"/></g><g fill="#323232" fill-opacity="1"><g transform="translate(31.49801, 373.785357)"><g><path d="M 0.796875 -65.3125 L 0.796875 -81.65625 L 58.1875 -81.65625 L 58.1875 -65.3125 L 38.796875 -65.3125 L 38.796875 0 L 20.1875 0 L 20.1875 -65.3125 Z M 0.796875 -65.3125 "/></g></g></g><g fill="#323232" fill-opacity="1"><g transform="translate(82.955038, 373.785357)"><g/></g></g><g fill="#323232" fill-opacity="1"><g transform="translate(102.44769, 373.785357)"><g/></g></g><g fill="#323232" fill-opacity="1"><g transform="translate(121.943317, 373.785357)"><g><path d="M 9.40625 -6.28125 C 4.65625 -11.457031 2.28125 -17.804688 2.28125 -25.328125 C 2.28125 -32.859375 4.65625 -39.226562 9.40625 -44.4375 C 14.15625 -49.644531 20.191406 -52.25 27.515625 -52.25 C 34.242188 -52.25 39.785156 -50.140625 44.140625 -45.921875 L 44.140625 -85.109375 L 61.65625 -85.109375 L 61.65625 0 L 44.34375 0 L 44.34375 -5.734375 L 44.140625 -5.734375 C 39.785156 -0.921875 34.242188 1.484375 27.515625 1.484375 C 20.191406 1.484375 14.15625 -1.101562 9.40625 -6.28125 Z M 24.296875 -33.9375 C 22.015625 -31.695312 20.875 -28.828125 20.875 -25.328125 C 20.875 -21.835938 21.960938 -18.984375 24.140625 -16.765625 C 26.328125 -14.554688 29.203125 -13.453125 32.765625 -13.453125 C 36.191406 -13.453125 39.007812 -14.570312 41.21875 -16.8125 C 43.425781 -19.0625 44.53125 -21.90625 44.53125 -25.34375 C 44.53125 -28.832031 43.390625 -31.695312 41.109375 -33.9375 C 38.835938 -36.1875 36.054688 -37.3125 32.765625 -37.3125 C 29.398438 -37.3125 26.578125 -36.1875 24.296875 -33.9375 Z M 24.296875 -33.9375 "/></g></g></g><g fill="#323232" fill-opacity="1"><g transform="translate(182.006747, 373.785357)"><g><path d="M 9.40625 -6.28125 C 4.65625 -11.457031 2.28125 -17.804688 2.28125 -25.328125 C 2.28125 -32.859375 4.65625 -39.226562 9.40625 -44.4375 C 14.15625 -49.644531 20.191406 -52.25 27.515625 -52.25 C 34.242188 -52.25 39.785156 -50.140625 44.140625 -45.921875 L 44.140625 -85.109375 L 61.65625 -85.109375 L 61.65625 0 L 44.34375 0 L 44.34375 -5.734375 L 44.140625 -5.734375 C 39.785156 -0.921875 34.242188 1.484375 27.515625 1.484375 C 20.191406 1.484375 14.15625 -1.101562 9.40625 -6.28125 Z M 24.296875 -33.9375 C 22.015625 -31.695312 20.875 -28.828125 20.875 -25.328125 C 20.875 -21.835938 21.960938 -18.984375 24.140625 -16.765625 C 26.328125 -14.554688 29.203125 -13.453125 32.765625 -13.453125 C 36.191406 -13.453125 39.007812 -14.570312 41.21875 -16.8125 C 43.425781 -19.0625 44.53125 -21.90625 44.53125 -25.34375 C 44.53125 -28.832031 43.390625 -31.695312 41.109375 -33.9375 C 38.835938 -36.1875 36.054688 -37.3125 32.765625 -37.3125 C 29.398438 -37.3125 26.578125 -36.1875 24.296875 -33.9375 Z M 24.296875 -33.9375 "/></g></g></g><g fill="#323232" fill-opacity="1"><g transform="translate(242.070177, 373.785357)"><g><path d="M 57.296875 -22.953125 L 20.484375 -22.953125 C 20.484375 -19.390625 21.640625 -16.75 23.953125 -15.03125 C 26.265625 -13.320312 28.769531 -12.46875 31.46875 -12.46875 C 34.3125 -12.46875 36.554688 -12.847656 38.203125 -13.609375 C 39.847656 -14.367188 41.726562 -15.867188 43.84375 -18.109375 L 56.515625 -11.78125 C 51.234375 -2.9375 42.457031 1.484375 30.1875 1.484375 C 22.53125 1.484375 15.960938 -1.132812 10.484375 -6.375 C 5.015625 -11.625 2.28125 -17.941406 2.28125 -25.328125 C 2.28125 -32.722656 5.015625 -39.054688 10.484375 -44.328125 C 15.960938 -49.609375 22.53125 -52.25 30.1875 -52.25 C 38.238281 -52.25 44.785156 -49.921875 49.828125 -45.265625 C 54.878906 -40.617188 57.40625 -33.976562 57.40625 -25.34375 C 57.40625 -24.144531 57.367188 -23.347656 57.296875 -22.953125 Z M 20.984375 -32.65625 L 40.28125 -32.65625 C 39.882812 -35.300781 38.84375 -37.332031 37.15625 -38.75 C 35.476562 -40.164062 33.320312 -40.875 30.6875 -40.875 C 27.78125 -40.875 25.46875 -40.113281 23.75 -38.59375 C 22.03125 -37.082031 21.109375 -35.101562 20.984375 -32.65625 Z M 20.984375 -32.65625 "/></g></g></g><g fill="#323232" fill-opacity="1"><g transform="translate(294.217364, 373.785357)"><g><path d="M 5.9375 0 L 5.9375 -50.765625 L 23.453125 -50.765625 L 23.453125 -43.453125 L 23.65625 -43.453125 C 23.78125 -43.710938 23.988281 -44.039062 24.28125 -44.4375 C 24.582031 -44.832031 25.226562 -45.523438 26.21875 -46.515625 C 27.21875 -47.503906 28.273438 -48.394531 29.390625 -49.1875 C 30.515625 -49.976562 31.96875 -50.6875 33.75 -51.3125 C 35.53125 -51.9375 37.34375 -52.25 39.1875 -52.25 C 41.101562 -52.25 42.984375 -51.984375 44.828125 -51.453125 C 46.679688 -50.929688 48.035156 -50.40625 48.890625 -49.875 L 50.28125 -49.09375 L 42.953125 -34.25 C 40.773438 -36.09375 37.738281 -37.015625 33.84375 -37.015625 C 31.738281 -37.015625 29.925781 -36.550781 28.40625 -35.625 C 26.882812 -34.707031 25.8125 -33.585938 25.1875 -32.265625 C 24.5625 -30.941406 24.113281 -29.816406 23.84375 -28.890625 C 23.582031 -27.972656 23.453125 -27.25 23.453125 -26.71875 L 23.453125 0 Z M 5.9375 0 "/></g></g></g></svg>