<svg xmlns="http://www.w3.org/2000/svg" xmlns:xlink="http://www.w3.org/1999/xlink" width="500" zoomAndPan="magnify" viewBox="0 0 375 374.999991" height="500" preserveAspectRatio="xMidYMid meet" version="1.0"><defs><g/><clipPath id="778a106d5d"><path d="M 44.960938 220.3125 L 158.210938 220.3125 L 158.210938 374.8125 L 44.960938 374.8125 Z M 44.960938 220.3125 " clip-rule="nonzero"/></clipPath></defs><g clip-path="url(#778a106d5d)"><path fill="#323232" d="M 158.347656 255.773438 C 156.238281 252.335938 147.714844 246.875 141.007812 244.628906 C 134.3125 242.378906 127.472656 241.730469 120.425781 242.734375 C 127.511719 238.167969 135.203125 235.25 144.058594 233.429688 C 137.058594 230.953125 130.527344 230.09375 123.78125 231.289062 C 116.945312 232.503906 111.128906 235.707031 105.949219 241.105469 C 106.550781 232.578125 103.207031 226.160156 97.550781 220.3125 C 97.519531 220.382812 97.492188 220.457031 97.464844 220.53125 C 97.421875 220.464844 97.378906 220.398438 97.335938 220.335938 C 92.980469 227.203125 91.007812 234.167969 93.324219 242.394531 C 87.15625 238.160156 80.8125 236.199219 73.871094 236.398438 C 67.023438 236.589844 60.800781 238.753906 54.445312 242.601562 C 63.488281 242.585938 71.613281 243.886719 79.476562 246.925781 C 72.371094 247.367188 65.804688 249.390625 59.703125 252.945312 C 53.589844 256.503906 46.347656 263.578125 44.980469 267.371094 C 53.714844 262.75 64.273438 260.277344 71.621094 259.257812 C 73.246094 259.027344 74.714844 258.871094 75.972656 258.777344 C 71.949219 261.082031 68.425781 263.667969 65.476562 266.601562 C 59.226562 272.8125 55.574219 280.582031 55.261719 290.492188 C 62.480469 283.160156 71.152344 278.203125 80.195312 273.628906 C 75.636719 283 74.636719 292.703125 80.667969 303.121094 C 82.246094 292.953125 86.1875 283.777344 91.875 274.925781 C 91.832031 277.609375 92.28125 282.460938 92.539062 282.59375 C 94.949219 279.46875 97.355469 276.347656 99.820312 273.15625 C 100.15625 272.714844 100.507812 272.28125 100.863281 271.855469 C 103.269531 306.019531 100.964844 340.242188 94.003906 373.632812 L 93.722656 374.980469 L 109.613281 374.980469 L 109.691406 373.945312 C 112.277344 339.246094 110.109375 304.460938 103.253906 270.511719 C 104.132812 271.152344 104.988281 271.832031 105.816406 272.542969 C 108.875 275.171875 111.867188 277.738281 114.855469 280.3125 C 115.082031 280.128906 114.539062 275.285156 113.957031 272.671875 C 113.957031 272.675781 113.960938 272.675781 113.960938 272.675781 C 121.320312 280.191406 127.035156 288.375 130.636719 298.007812 C 134.433594 286.582031 131.488281 277.289062 125.128906 269.03125 C 134.910156 271.679688 144.40625 274.777344 152.960938 280.5 C 150.648438 270.855469 145.5 263.988281 138.121094 259.171875 C 134.640625 256.894531 130.664062 255.078125 126.253906 253.632812 C 127.503906 253.46875 128.976562 253.324219 130.613281 253.222656 C 138.015625 252.734375 148.855469 253.015625 158.347656 255.773438 " fill-opacity="1" fill-rule="nonzero"/></g><g fill="#323232" fill-opacity="1"><g transform="translate(55.27829, 372.859428)"><g><path d="M 8.90625 -50.765625 L 8.90625 -69.671875 L 26.421875 -69.671875 L 26.421875 -50.765625 L 37.109375 -50.765625 L 37.109375 -37.40625 L 26.421875 -37.40625 L 26.421875 -21.28125 C 26.421875 -16.59375 27.742188 -14.25 30.390625 -14.25 C 31.046875 -14.25 31.734375 -14.378906 32.453125 -14.640625 C 33.179688 -14.910156 33.742188 -15.175781 34.140625 -15.4375 L 34.734375 -15.828125 L 39.09375 -1.6875 C 35.332031 0.425781 31.046875 1.484375 26.234375 1.484375 C 22.929688 1.484375 20.09375 0.90625 17.71875 -0.25 C 15.34375 -1.40625 13.539062 -2.953125 12.3125 -4.890625 C 11.09375 -6.835938 10.21875 -8.882812 9.6875 -11.03125 C 9.164062 -13.175781 8.90625 -15.46875 8.90625 -17.90625 L 8.90625 -37.40625 L 1.578125 -37.40625 L 1.578125 -50.765625 Z M 8.90625 -50.765625 "/></g></g></g><g fill="#323232" fill-opacity="1"><g transform="translate(86.843221, 372.859428)"><g/></g></g><g fill="#323232" fill-opacity="1"><g transform="translate(106.335873, 372.859428)"><g><path d="M 9.40625 -6.28125 C 4.65625 -11.457031 2.28125 -17.804688 2.28125 -25.328125 C 2.28125 -32.859375 4.65625 -39.226562 9.40625 -44.4375 C 14.15625 -49.644531 20.191406 -52.25 27.515625 -52.25 C 34.242188 -52.25 39.785156 -50.140625 44.140625 -45.921875 L 44.140625 -85.109375 L 61.65625 -85.109375 L 61.65625 0 L 44.34375 0 L 44.34375 -5.734375 L 44.140625 -5.734375 C 39.785156 -0.921875 34.242188 1.484375 27.515625 1.484375 C 20.191406 1.484375 14.15625 -1.101562 9.40625 -6.28125 Z M 24.296875 -33.9375 C 22.015625 -31.695312 20.875 -28.828125 20.875 -25.328125 C 20.875 -21.835938 21.960938 -18.984375 24.140625 -16.765625 C 26.328125 -14.554688 29.203125 -13.453125 32.765625 -13.453125 C 36.191406 -13.453125 39.007812 -14.570312 41.21875 -16.8125 C 43.425781 -19.0625 44.53125 -21.90625 44.53125 -25.34375 C 44.53125 -28.832031 43.390625 -31.695312 41.109375 -33.9375 C 38.835938 -36.1875 36.054688 -37.3125 32.765625 -37.3125 C 29.398438 -37.3125 26.578125 -36.1875 24.296875 -33.9375 Z M 24.296875 -33.9375 "/></g></g></g><g fill="#323232" fill-opacity="1"><g transform="translate(166.399303, 372.859428)"><g><path d="M 9.40625 -6.28125 C 4.65625 -11.457031 2.28125 -17.804688 2.28125 -25.328125 C 2.28125 -32.859375 4.65625 -39.226562 9.40625 -44.4375 C 14.15625 -49.644531 20.191406 -52.25 27.515625 -52.25 C 34.242188 -52.25 39.785156 -50.140625 44.140625 -45.921875 L 44.140625 -85.109375 L 61.65625 -85.109375 L 61.65625 0 L 44.34375 0 L 44.34375 -5.734375 L 44.140625 -5.734375 C 39.785156 -0.921875 34.242188 1.484375 27.515625 1.484375 C 20.191406 1.484375 14.15625 -1.101562 9.40625 -6.28125 Z M 24.296875 -33.9375 C 22.015625 -31.695312 20.875 -28.828125 20.875 -25.328125 C 20.875 -21.835938 21.960938 -18.984375 24.140625 -16.765625 C 26.328125 -14.554688 29.203125 -13.453125 32.765625 -13.453125 C 36.191406 -13.453125 39.007812 -14.570312 41.21875 -16.8125 C 43.425781 -19.0625 44.53125 -21.90625 44.53125 -25.34375 C 44.53125 -28.832031 43.390625 -31.695312 41.109375 -33.9375 C 38.835938 -36.1875 36.054688 -37.3125 32.765625 -37.3125 C 29.398438 -37.3125 26.578125 -36.1875 24.296875 -33.9375 Z M 24.296875 -33.9375 "/></g></g></g><g fill="#323232" fill-opacity="1"><g transform="translate(226.462733, 372.859428)"><g><path d="M 57.296875 -22.953125 L 20.484375 -22.953125 C 20.484375 -19.390625 21.640625 -16.75 23.953125 -15.03125 C 26.265625 -13.320312 28.769531 -12.46875 31.46875 -12.46875 C 34.3125 -12.46875 36.554688 -12.847656 38.203125 -13.609375 C 39.847656 -14.367188 41.726562 -15.867188 43.84375 -18.109375 L 56.515625 -11.78125 C 51.234375 -2.9375 42.457031 1.484375 30.1875 1.484375 C 22.53125 1.484375 15.960938 -1.132812 10.484375 -6.375 C 5.015625 -11.625 2.28125 -17.941406 2.28125 -25.328125 C 2.28125 -32.722656 5.015625 -39.054688 10.484375 -44.328125 C 15.960938 -49.609375 22.53125 -52.25 30.1875 -52.25 C 38.238281 -52.25 44.785156 -49.921875 49.828125 -45.265625 C 54.878906 -40.617188 57.40625 -33.976562 57.40625 -25.34375 C 57.40625 -24.144531 57.367188 -23.347656 57.296875 -22.953125 Z M 20.984375 -32.65625 L 40.28125 -32.65625 C 39.882812 -35.300781 38.84375 -37.332031 37.15625 -38.75 C 35.476562 -40.164062 33.320312 -40.875 30.6875 -40.875 C 27.78125 -40.875 25.46875 -40.113281 23.75 -38.59375 C 22.03125 -37.082031 21.109375 -35.101562 20.984375 -32.65625 Z M 20.984375 -32.65625 "/></g></g></g><g fill="#323232" fill-opacity="1"><g transform="translate(278.609909, 372.859428)"><g><path d="M 5.9375 0 L 5.9375 -50.765625 L 23.453125 -50.765625 L 23.453125 -43.453125 L 23.65625 -43.453125 C 23.78125 -43.710938 23.988281 -44.039062 24.28125 -44.4375 C 24.582031 -44.832031 25.226562 -45.523438 26.21875 -46.515625 C 27.21875 -47.503906 28.273438 -48.394531 29.390625 -49.1875 C 30.515625 -49.976562 31.96875 -50.6875 33.75 -51.3125 C 35.53125 -51.9375 37.34375 -52.25 39.1875 -52.25 C 41.101562 -52.25 42.984375 -51.984375 44.828125 -51.453125 C 46.679688 -50.929688 48.035156 -50.40625 48.890625 -49.875 L 50.28125 -49.09375 L 42.953125 -34.25 C 40.773438 -36.09375 37.738281 -37.015625 33.84375 -37.015625 C 31.738281 -37.015625 29.925781 -36.550781 28.40625 -35.625 C 26.882812 -34.707031 25.8125 -33.585938 25.1875 -32.265625 C 24.5625 -30.941406 24.113281 -29.816406 23.84375 -28.890625 C 23.582031 -27.972656 23.453125 -27.25 23.453125 -26.71875 L 23.453125 0 Z M 5.9375 0 "/></g></g></g></svg>